<svg id="Layer_1" data-name="Layer 1" xmlns="http://www.w3.org/2000/svg" viewBox="0 0 627.74 99.1"><defs><style>.cls-1{fill:#393636;}.cls-2{fill:#c60651;}.cls-3{fill:#7a003c;}.cls-4{fill:#49182d;}.cls-5{fill:#918f90;}</style></defs><title>logo</title><path class="cls-1" d="M169.18,25.08q.87,0,1.06.26a1,1,0,0,1,.18.62.81.81,0,0,1-.29.62,2.58,2.58,0,0,1-1.46.25,15.66,15.66,0,0,0-3.29.29,4.07,4.07,0,0,0-2,1,3.94,3.94,0,0,0-1,1.86,11.45,11.45,0,0,0-.29,2.81V68.55a7.26,7.26,0,0,0,1,4.38q1,1.32,3.87,1.32h6.36a25,25,0,0,0,4.31-.37,14.51,14.51,0,0,0,4.24-1.46,13,13,0,0,0,3.54-2.89,34.67,34.67,0,0,0,2.89-3.73,38,38,0,0,0,2-3.25q.73-1.38.8-1.54a3,3,0,0,1,.7-1,1.12,1.12,0,0,1,.69-.26q.8,0,.8.73a1.62,1.62,0,0,1-.11.58c-.07.2-.18.51-.33.95l-2.48,8.41c-.25.93-.45,1.77-.62,2.52s-.3,1.4-.4,1.94-.24.85-.44,1a3.61,3.61,0,0,1-1.31.14H158.3q-4.1,0-6.11.08c-1.34,0-2.32.07-3,.07s-1-.1-1.17-.29a1,1,0,0,1-.22-.58.74.74,0,0,1,.37-.62,2.63,2.63,0,0,1,1.39-.26,6.15,6.15,0,0,0,3.65-.95q1.32-.95,1.32-3.66V31.43q0-2.78-1.32-3.69a3,3,0,0,0-2-.62H125.47V69.65q0,2.85,1.54,3.76a9.55,9.55,0,0,0,4.75.91,2.13,2.13,0,0,1,1.39.33.94.94,0,0,1,.37.69,1.11,1.11,0,0,1-.18.59c-.12.19-.5.29-1.13.29s-1.84,0-3.62-.07-4.06-.07-6.83-.07-5,0-6.76.07-3,.07-3.69.07-.95-.1-1.1-.29a1,1,0,0,1-.22-.59.93.93,0,0,1,.37-.69,2.12,2.12,0,0,1,1.39-.33c.73,0,1.47,0,2.23-.11a5.67,5.67,0,0,0,2-.55,3.93,3.93,0,0,0,1.46-1.28,4,4,0,0,0,.58-2.3v-43h-6.28a15.52,15.52,0,0,0-6.29,1.13A14.26,14.26,0,0,0,101.21,31a16.78,16.78,0,0,0-2.74,3.44q-1.06,1.79-1.79,3.1-.29.44-.47.66a.68.68,0,0,1-.55.22.64.64,0,0,1-.73-.73,4.65,4.65,0,0,1,.18-.91c.12-.46.26-1,.4-1.64s.32-1.33.51-2.08.37-1.47.51-2.16c.1-.48.22-1,.37-1.68s.29-1.25.44-1.86.27-1.14.37-1.61a5.9,5.9,0,0,0,.15-.91,5.07,5.07,0,0,1,.29-.8.67.67,0,0,1,.66-.29,1.8,1.8,0,0,1,.95.22,5.84,5.84,0,0,0,1.35.47,22.24,22.24,0,0,0,3,.48,59.3,59.3,0,0,0,6,.22m149.52.22c-.15-.19-.49-.29-1-.29h-1.13q-.77,0-1.68,0t-1.86,0H252q-3.88,0-5.41,0l-2,0c-.58,0-.92.08-1,.26a1,1,0,0,0-.15.55.87.87,0,0,0,.33.66,2,2,0,0,0,1.28.29,4.42,4.42,0,0,1,3,1,4,4,0,0,1,1.21,3.22,11.46,11.46,0,0,1-.4,3q-.4,1.5-1,3.18l-9.57,28.5L226.33,34.87q-.59-1.46-1-2.67a7.9,7.9,0,0,1-.37-2.3,2.38,2.38,0,0,1,1.5-2.48,10.69,10.69,0,0,1,3.83-.59,1.58,1.58,0,0,0,1.06-.29.8.8,0,0,0,.33-.59c0-.58-.37-.88-1.1-.88h-1.13l-1.86,0q-1.17,0-3,0H216q-1.6,0-2.59,0l-1.61,0h-1.13c-.44,0-.72.1-.84.29a1.2,1.2,0,0,0-.19.66.8.8,0,0,0,.29.51,1.56,1.56,0,0,0,1.1.29,5.92,5.92,0,0,1,4.13,1.24,9.07,9.07,0,0,1,2.23,3.58L220,38.6,209,65.77,197,34.87q-.37-.95-.84-2.37a8.43,8.43,0,0,1-.47-2.66q0-3,4.24-3a1.45,1.45,0,0,0,1-.29.82.82,0,0,0,.33-.59q0-.88-1.09-.88h-1l-1.53,0q-1,0-2.6,0h-8.37q-1.64,0-2.67,0l-1.64,0h-1c-.44,0-.72.08-.84.26a1,1,0,0,0-.18.62.83.83,0,0,0,.26.51,1.47,1.47,0,0,0,1,.36,7.58,7.58,0,0,1,4,1.35,7.48,7.48,0,0,1,2.56,3.47L205.28,76a6.11,6.11,0,0,0,.59,1.24.73.73,0,0,0,1.17,0,7.39,7.39,0,0,0,.66-1.46l13.44-33.91L234.88,76a8.84,8.84,0,0,0,.55,1.24.6.6,0,0,0,.55.29,1,1,0,0,0,.66-.26,3.76,3.76,0,0,0,.66-1.5L251,35a19,19,0,0,1,1.64-3.73,11.12,11.12,0,0,1,1.9-2.45,8.29,8.29,0,0,1,2-1.39,7.11,7.11,0,0,1,1.86-.62q1.39-.22,1.38-.87A1,1,0,0,0,259.57,25.37Z" transform="translate(-0.13 -0.14)"/><path class="cls-2" d="M84.3,21.81,48.5,1.14a9.26,9.26,0,0,0-8.35,0L25.06,9.85a49.91,49.91,0,0,0-7.7,24.27A49.72,49.72,0,0,1,88.48,53V29A9.26,9.26,0,0,0,84.3,21.81Z" transform="translate(-0.13 -0.14)"/><path class="cls-3" d="M48.52,98.24,84.3,77.54a9.26,9.26,0,0,0,4.17-7.23V52.88A49.91,49.91,0,0,0,71.27,34.09,49.68,49.68,0,0,1,44.33,80.83a49.93,49.93,0,0,1-25,5.44l20.79,12A9.26,9.26,0,0,0,48.52,98.24Z" transform="translate(-0.13 -0.14)"/><path class="cls-4" d="M.13,29,.19,70.38A9.26,9.26,0,0,0,4.38,77.6L19.49,86.3a49.91,49.91,0,0,0,24.86-5.51,49.72,49.72,0,0,1-19.29-71L4.29,21.8A9.26,9.26,0,0,0,.13,29Z" transform="translate(-0.13 -0.14)"/><path class="cls-5" d="M281,27.78l-1.64.05-2.42.09V74.39l2.42.09,1.64.05.7,0q1.47.07,1.47,1.31v1.47H266.93V75.86q0-1.23,1.47-1.31l.7,0,1.64-.05,2.42-.09V27.92l-2.42-.09-1.64-.05-.7,0q-1.47-.07-1.47-1.31V25h16.28v1.47q0,1.23-1.47,1.31Z" transform="translate(-0.13 -0.14)"/><path class="cls-5" d="M340.27,25v1.47q0,1.23-1.47,1.31l-.7,0-1.64.05-2.42.09V77.33h-1.81a1.59,1.59,0,0,1-1.37-.74l-34-45.44a20.9,20.9,0,0,1,.11,2.11V74.39l2.46.09,1.72.05.74,0q1.47.07,1.47,1.31v1.47H287.4V75.86q0-1.23,1.47-1.31l.7,0,1.64-.05,2.42-.09V27.92l-2.42-.09-1.64-.05-.7,0q-1.47-.07-1.47-1.31V25h8.08a2.13,2.13,0,0,1,.81.13,1.76,1.76,0,0,1,.63.57L330.82,71a21,21,0,0,1-.11-2.15v-41l-2.46-.09-1.72-.05-.74,0q-1.47-.07-1.47-1.31V25h16Z" transform="translate(-0.13 -0.14)"/><path class="cls-5" d="M384.56,25V35.84h-1.8q-1.51,0-1.59-1.79,0-.2-.29-5.85H365.63v46.2l2.42.09,1.64.05.7,0q1.47.07,1.47,1.31v1.47H355.63V75.86q0-1.23,1.47-1.31l.7,0,1.64-.05,2.42-.09V28.19H346.54q-.25,5.08-.29,5.85-.09,1.79-1.59,1.79h-1.8V25h41.7Z" transform="translate(-0.13 -0.14)"/><path class="cls-5" d="M431.13,75.86v1.47h-5.24a2.17,2.17,0,0,1-1-.22,2.65,2.65,0,0,1-.83-.74L407.28,55.13A3.72,3.72,0,0,0,405.93,54a5.64,5.64,0,0,0-2.24-.33h-6.2V74.39l2.41.09,1.64.05.7,0q1.47.07,1.47,1.31v1.47H387.48V75.86q0-1.23,1.47-1.31l.7,0,1.64-.05,2.42-.09V27.92l-2.42-.09-1.64-.05-.7,0q-1.47-.07-1.47-1.31V25h18.95q9.07,0,13.54,3.5t4.48,10.27a14.09,14.09,0,0,1-1,5.48,12.85,12.85,0,0,1-3,4.35,15.86,15.86,0,0,1-4.68,3.07,20.8,20.8,0,0,1-6.18,1.57,6,6,0,0,1,1.59,1.48L426.9,74.46l1.33,0,1,0,.47,0Q431.13,74.63,431.13,75.86ZM412.18,50a13.43,13.43,0,0,0,4.66-2.39,10.32,10.32,0,0,0,2.9-3.74,11.7,11.7,0,0,0,1-4.92q0-5.59-3.66-8.29T406.43,28h-8.94V50.84h8.46A21.55,21.55,0,0,0,412.18,50Z" transform="translate(-0.13 -0.14)"/><path class="cls-5" d="M485.45,75.63v1.7H472.68v-1.7q0-1.43,1.7-1.51l.46,0,1-.07,1.87-.11-5.19-12.78-.37-.95h-25l-.39.95L441.68,73.9l1.88.11,1,.07.46,0q1.7.08,1.7,1.51v1.7H434v-1.7a1.39,1.39,0,0,1,1.42-1.49l2.39-.24,20-48.93h3.77l20,48.93,2.39.24A1.39,1.39,0,0,1,485.45,75.63ZM448.37,57.37h22.69L460.76,31.86q-.26-.62-.52-1.42t-.52-1.68q-.26.88-.52,1.68t-.52,1.46Z" transform="translate(-0.13 -0.14)"/><path class="cls-5" d="M542,25v1.47q0,1.23-1.47,1.31l-.7,0-1.64.05-2.42.09V77.33h-1.81a1.59,1.59,0,0,1-1.37-.74l-34-45.44a20.9,20.9,0,0,1,.11,2.11V74.39l2.46.09,1.72.05.74,0q1.47.07,1.47,1.31v1.47H489.08V75.86q0-1.23,1.47-1.31l.7,0,1.64-.05,2.42-.09V27.92l-2.42-.09-1.64-.05-.7,0q-1.47-.07-1.47-1.31V25h8.08a2.13,2.13,0,0,1,.81.13,1.76,1.76,0,0,1,.63.57L532.5,71a21,21,0,0,1-.11-2.15v-41l-2.46-.09-1.72-.05-.74,0Q526,27.68,526,26.45V25h16Z" transform="translate(-0.13 -0.14)"/><path class="cls-5" d="M582.15,25V35.82h-1.8q-1.51,0-1.59-1.79,0-1-.29-5.9H554.59V49.28h20.83v3.07H554.59V74.19h23.88q0-1,.13-2.58l.12-2.37c0-.49,0-.81,0-1q.09-1.79,1.59-1.79h1.8V77.33H544.54V75.86q0-1.23,1.47-1.31l.7,0,1.64-.05,2.42-.09V27.92l-2.42-.09-1.64-.05-.7,0q-1.47-.07-1.47-1.31V25h37.61Z" transform="translate(-0.13 -0.14)"/><path class="cls-5" d="M627.87,25V35.84h-1.8q-1.51,0-1.59-1.79,0-.2-.29-5.85H608.95v46.2l2.42.09,1.64.05.7,0q1.47.07,1.47,1.31v1.47H598.94V75.86q0-1.23,1.47-1.31l.7,0,1.64-.05,2.42-.09V28.19H589.85q-.25,5.08-.29,5.85-.09,1.79-1.59,1.79h-1.8V25h41.7Z" transform="translate(-0.13 -0.14)"/></svg>